<svg width="32" height="32" viewBox="0 0 32 32" fill="none" xmlns="http://www.w3.org/2000/svg">
<rect width="32" height="32" rx="16" fill="black"/>
<path d="M14.2929 21.7071C14.6834 22.0976 15.3166 22.0976 15.7071 21.7071C16.0976 21.3166 16.0976 20.6834 15.7071 20.2929L14.2929 21.7071ZM10 16L9.29289 15.2929C8.90237 15.6834 8.90237 16.3166 9.29289 16.7071L10 16ZM15.7071 11.7071C16.0976 11.3166 16.0976 10.6834 15.7071 10.2929C15.3166 9.90237 14.6834 9.90237 14.2929 10.2929L15.7071 11.7071ZM15.7071 20.2929L10.7071 15.2929L9.29289 16.7071L14.2929 21.7071L15.7071 20.2929ZM10.7071 16.7071L15.7071 11.7071L14.2929 10.2929L9.29289 15.2929L10.7071 16.7071Z" fill="white"/>
<path d="M22 16L10 16" stroke="white" stroke-width="2" stroke-linecap="round"/>
</svg>
